# File created by Blade
# Date/Time:  Wed Jan 21 17:10:37 2015
# Frame Rate: 120.000 fps
#------------------------------------------------------
:FULLY-SPECIFIED
:DEGREES
946
root 19.790376 3.360319 -11.621160 -236.334036 3.942129 -184.426830
Spine 65.515107 4.145220 -8.354632
Head -13.680378 3.300991 3.560383
LeftShoulder 11.939178 -29.485616 -15.312461
LeftArm 17.655625 28.023620 -66.526449
LeftForeArm -68.825495 -0.000000 98.952784
LeftHand -2.676579 -0.000000 -2.224117
LeftHandThumb1 -26.253704 0.000000 33.147579
RightShoulder 8.688133 8.528079 -20.871758
RightArm 67.535182 5.563631 3.848416
RightForeArm -9.611111 -0.000000 109.341303
RightHand -15.660533 -0.000000 -2.155605
RightHandThumb1 -24.326973 -0.000000 -32.862282
LeftUpLeg -35.572310 32.603145 -3.353881
LeftLeg -1.022730 -0.000000 0.000000
LeftFoot 18.725225 35.049112 -0.901330
LeftToeBase 18.437946 -0.000000 -0.000000
RightUpLeg -114.805645 13.455658 82.589932
RightLeg 123.203461 -0.000000 -0.000000
RightFoot 24.788526 -14.128172 28.575668
RightToeBase 27.879668 -0.000000 -0.000000
947
root 19.791399 3.357187 -11.623084 -236.324997 3.921918 -184.504537
Spine 65.480390 4.148051 -8.490597
Head -13.830774 3.652217 3.411866
LeftShoulder 11.837861 -29.527931 -15.278479
LeftArm 17.679098 27.992390 -66.521774
LeftForeArm -68.867513 -0.000000 98.809144
LeftHand -2.565005 -0.000000 -2.473980
LeftHandThumb1 -26.253704 0.000000 33.147579
RightShoulder 8.751734 8.598199 -20.919855
RightArm 67.555915 5.493191 3.893797
RightForeArm -9.801411 -0.000000 109.346241
RightHand -15.668135 -0.000000 -2.121546
RightHandThumb1 -24.326973 -0.000000 -32.862282
LeftUpLeg -35.563471 32.629876 -3.392986
LeftLeg -1.042263 -0.000000 0.000000
LeftFoot 18.711966 35.092616 -0.946160
LeftToeBase 18.475752 -0.000000 -0.000000
RightUpLeg -114.712269 13.411393 82.326892
RightLeg 123.025872 -0.000000 -0.000000
RightFoot 23.324758 -12.914182 30.306434
RightToeBase 28.424505 -0.000000 -0.000000
948
root 19.788770 3.357605 -11.623801 -236.358854 3.876686 -184.577413
Spine 65.490767 4.173287 -8.580231
Head -13.938825 3.884229 3.285128
LeftShoulder 11.860989 -29.539304 -15.270899
LeftArm 17.667751 27.912681 -66.533221
LeftForeArm -68.910473 -0.000000 98.714741
LeftHand -2.490781 0.000000 -2.573819
LeftHandThumb1 -26.253704 0.000000 33.147579
RightShoulder 8.816462 8.654886 -20.957540
RightArm 67.489698 5.427598 3.923066
RightForeArm -9.973214 -0.000000 109.382149
RightHand -15.659419 0.000000 -2.062823
RightHandThumb1 -24.326973 -0.000000 -32.862282
LeftUpLeg -35.498385 32.650165 -3.439347
LeftLeg -1.073901 -0.000000 0.000000
LeftFoot 18.734906 35.127286 -0.980382
LeftToeBase 18.424047 -0.000000 -0.000000
RightUpLeg -114.642498 13.325239 82.057283
RightLeg 122.906762 -0.000000 -0.000000
RightFoot 21.617123 -11.591492 32.081600
RightToeBase 28.793580 -0.000000 -0.000000
949
root 19.792284 3.354589 -11.624775 -236.365522 3.883024 -184.652524
Spine 65.469989 4.250567 -8.596774
Head -14.071988 4.095514 3.146787
LeftShoulder 11.865179 -29.495297 -15.229988
LeftArm 17.746093 27.829545 -66.558871
LeftForeArm -68.775228 -0.000000 98.543307
LeftHand -2.524294 0.000000 -2.968302
LeftHandThumb1 -26.253704 0.000000 33.147579
RightShoulder 8.842821 8.676263 -20.987238
RightArm 67.429341 5.388272 3.946699
RightForeArm -10.148944 -0.000000 109.435805
RightHand -15.662703 -0.000000 -2.032160
RightHandThumb1 -24.326973 -0.000000 -32.862282
LeftUpLeg -35.473230 32.687777 -3.441342
LeftLeg -1.091196 -0.000000 0.000000
LeftFoot 18.749564 35.170857 -1.019942
LeftToeBase 18.415827 -0.000000 -0.000000
RightUpLeg -114.502827 13.280487 81.848152
RightLeg 122.762845 -0.000000 -0.000000
RightFoot 19.745112 -9.905956 33.191897
RightToeBase 28.667913 -0.000000 -0.000000
950
root 19.793591 3.352271 -11.624354 -236.355238 3.890368 -184.727476
Spine 65.448559 4.302999 -8.606523
Head -14.255147 4.298106 2.960141
LeftShoulder 11.865626 -29.512973 -15.225203
LeftArm 17.753959 27.812508 -66.537943
LeftForeArm -68.979969 -0.000000 98.511477
LeftHand -2.456752 -0.000000 -2.940055
LeftHandThumb1 -26.253704 0.000000 33.147579
RightShoulder 8.864150 8.703709 -21.040170
RightArm 67.392332 5.355863 3.985547
RightForeArm -10.336104 -0.000000 109.482209
RightHand -15.672319 0.000000 -2.021053
RightHandThumb1 -24.326973 -0.000000 -32.862282
LeftUpLeg -35.467412 32.715523 -3.450251
LeftLeg -1.096838 -0.000000 0.000000
LeftFoot 18.784832 35.195100 -1.008502
LeftToeBase 18.401742 -0.000000 -0.000000
RightUpLeg -114.358281 13.246106 81.649662
RightLeg 122.609133 -0.000000 -0.000000
RightFoot 17.878244 -8.169815 34.092403
RightToeBase 28.693525 -0.000000 -0.000000
951
root 19.795130 3.350544 -11.623328 -236.370690 3.910048 -184.773285
Spine 65.466429 4.329381 -8.568597
Head -14.452450 4.506700 2.749367
LeftShoulder 11.842714 -29.481570 -15.192876
LeftArm 17.839190 27.732619 -66.546174
LeftForeArm -68.992201 -0.000000 98.406883
LeftHand -2.412733 -0.000000 -3.115665
LeftHandThumb1 -26.253704 0.000000 33.147579
RightShoulder 8.901512 8.726334 -21.131767
RightArm 67.320689 5.341013 4.054906
RightForeArm -10.490909 -0.000000 109.542585
RightHand -15.692348 -0.000000 -2.046191
RightHandThumb1 -24.326973 -0.000000 -32.862282
LeftUpLeg -35.432458 32.737851 -3.428467
LeftLeg -1.114050 -0.000000 0.000000
LeftFoot 18.788635 35.238531 -1.041652
LeftToeBase 18.401876 -0.000000 -0.000000
RightUpLeg -114.248274 13.211726 81.596341
RightLeg 122.412616 -0.000000 -0.000000
RightFoot 16.014314 -6.958674 34.581953
RightToeBase 28.514332 -0.000000 -0.000000
952
root 19.796537 3.348604 -11.622907 -236.385128 3.925879 -184.822636
Spine 65.472773 4.359988 -8.529451
Head -14.639679 4.721972 2.544471
LeftShoulder 11.835270 -29.463116 -15.154413
LeftArm 17.880219 27.600285 -66.619929
LeftForeArm -68.960929 -0.000000 98.291728
LeftHand -2.393746 -0.000000 -3.346187
LeftHandThumb1 -26.253704 0.000000 33.147579
RightShoulder 8.958405 8.696668 -21.211705
RightArm 67.229726 5.383476 4.108535
RightForeArm -10.628985 -0.000000 109.588507
RightHand -15.702610 -0.000000 -2.139676
RightHandThumb1 -24.326973 -0.000000 -32.862282
LeftUpLeg -35.392076 32.741472 -3.394469
LeftLeg -1.121928 -0.000000 0.000000
LeftFoot 18.793584 35.273760 -1.064595
LeftToeBase 18.409459 -0.000000 -0.000000
RightUpLeg -114.162162 13.182333 81.533270
RightLeg 122.201457 -0.000000 -0.000000
RightFoot 14.290500 -5.906671 34.662799
RightToeBase 28.235950 -0.000000 -0.000000
